<svg width="320" height="180" viewBox="0 0 320 180" fill="none" xmlns="http://www.w3.org/2000/svg">
  <defs>
    <linearGradient id="bg" x1="0" y1="0" x2="1" y2="1">
      <stop offset="0%" stop-color="#FFEBDD" />
      <stop offset="55%" stop-color="#F2F6FF" />
      <stop offset="100%" stop-color="#E6F0FF" />
    </linearGradient>
    <linearGradient id="shirt" x1="0" y1="0" x2="1" y2="1">
      <stop offset="0%" stop-color="#D7E7FF" />
      <stop offset="100%" stop-color="#EEF3FF" />
    </linearGradient>
  </defs>
  <rect x="0" y="0" width="320" height="180" rx="22" fill="url(#bg)" />

  <circle cx="252" cy="40" r="17" fill="#FBD38D" />
  <circle cx="252" cy="40" r="13" fill="#FFF7E6" />
  <path d="M252 34v12M246 40h12" stroke="#F59E0B" stroke-width="2" stroke-linecap="round" />

  <path d="M138 54l18 8h20l18-8 10 16-14 10v38a10 10 0 0 1-10 10h-46a10 10 0 0 1-10-10V80l-14-10 10-16z" fill="url(#shirt)" stroke="#CBD5F5" />

  <rect x="74" y="86" width="70" height="46" rx="12" fill="#FFEFD5" stroke="#FDE68A" />
  <path d="M84 86c0-6 6-12 14-12s14 6 14 12" stroke="#F59E0B" stroke-width="3" stroke-linecap="round" />
  <circle cx="98" cy="108" r="9" fill="#F4CDA4" />

  <rect x="188" y="84" width="72" height="48" rx="12" fill="#E8F1FF" stroke="#C7DBFF" />
  <rect x="206" y="100" width="36" height="20" rx="6" fill="#CFDCF5" />
</svg>
